<svg width="74" height="74" viewBox="0 0 74 74" fill="none" xmlns="http://www.w3.org/2000/svg">
<circle cx="36.9999" cy="36.9999" r="35.2769" fill="#E9C37E" stroke="#E9C37E" stroke-width="3.44609"/>
<mask id="mask0_175_643" style="mask-type:alpha" maskUnits="userSpaceOnUse" x="18" y="18" width="38" height="38">
<rect x="18.0765" y="18.0765" width="37.8472" height="37.8472" fill="#B8935A"/>
</mask>
<g mask="url(#mask0_175_643)">
<path d="M24.385 48.0387V44.8848H27.5389V33.846C27.5389 32.9787 27.6506 32.1245 27.874 31.2835C28.0974 30.4424 28.4325 29.6408 28.8793 28.8786L31.2448 31.2441C31.0608 31.6646 30.9228 32.0917 30.8308 32.5253C30.7388 32.959 30.6928 33.3992 30.6928 33.846V44.8848H40.47L20.2849 24.6996L22.4926 22.4919L51.5088 51.5081L49.3011 53.7158L43.5451 48.0387H24.385ZM46.4625 41.9674L43.3086 38.8135V33.846C43.3086 32.1114 42.6909 30.6264 41.4556 29.3911C40.2204 28.1558 38.7354 27.5382 37.0007 27.5382C36.3174 27.5382 35.6603 27.6433 35.0295 27.8536C34.3987 28.0638 33.8205 28.3792 33.2948 28.7998L31.0082 26.5132C31.5339 26.0926 32.099 25.7247 32.7035 25.4093C33.308 25.0939 33.9519 24.8573 34.6353 24.6996V23.5958C34.6353 22.9387 34.8652 22.3802 35.3252 21.9202C35.7851 21.4603 36.3436 21.2303 37.0007 21.2303C37.6578 21.2303 38.2163 21.4603 38.6762 21.9202C39.1362 22.3802 39.3662 22.9387 39.3662 23.5958V24.6996C41.4688 25.2253 43.1772 26.3357 44.4913 28.031C45.8054 29.7262 46.4625 31.6646 46.4625 33.846V41.9674ZM37.0007 52.7696C36.1334 52.7696 35.3909 52.4608 34.7733 51.8432C34.1556 51.2255 33.8468 50.483 33.8468 49.6157H40.1547C40.1547 50.483 39.8458 51.2255 39.2282 51.8432C38.6105 52.4608 37.868 52.7696 37.0007 52.7696Z" fill="white"/>
</g>
</svg>
