<svg width="64" height="64" viewBox="0 0 64 64" fill="none" xmlns="http://www.w3.org/2000/svg">
<circle cx="31.9999" cy="31.9999" r="30.2769" fill="#0B213F" stroke="#E9C37E" stroke-width="3.44609"/>
<mask id="mask0_175_583" style="mask-type:alpha" maskUnits="userSpaceOnUse" x="12" y="12" width="40" height="40">
<rect x="12.9904" y="12.9909" width="38.0194" height="38.0194" fill="#D9D9D9"/>
</mask>
<g mask="url(#mask0_175_583)">
<path d="M30.4164 39.7752V24.1714C29.3339 23.5378 28.1854 23.0625 26.9709 22.7457C25.7564 22.4289 24.5287 22.2705 23.2878 22.2705C22.3373 22.2705 21.3934 22.3629 20.4561 22.5477C19.5188 22.7325 18.6146 23.0097 17.7433 23.3794V39.0624C18.6674 38.7455 19.5849 38.5079 20.4957 38.3495C21.4066 38.1911 22.3373 38.1119 23.2878 38.1119C24.5287 38.1119 25.7366 38.2505 26.9115 38.5277C28.0864 38.8049 29.2547 39.2208 30.4164 39.7752ZM32.0006 44.4484C30.7332 43.4451 29.3603 42.6663 27.8818 42.1118C26.4033 41.5574 24.8719 41.2802 23.2878 41.2802C22.1789 41.2802 21.0898 41.4254 20.0205 41.7158C18.9512 42.0062 17.9281 42.4155 16.9512 42.9435C16.3968 43.2339 15.8621 43.2207 15.3473 42.9039C14.8324 42.5871 14.575 42.125 14.575 41.5178V22.4289C14.575 22.1385 14.6476 21.8612 14.7928 21.5972C14.938 21.3332 15.1559 21.1352 15.4463 21.0032C16.6608 20.3695 17.9281 19.8943 19.2482 19.5774C20.5683 19.2606 21.9149 19.1022 23.2878 19.1022C25.2416 19.1022 26.9049 19.3266 28.2778 19.7755C29.6507 20.2243 31.1293 20.9108 32.7134 21.8348C33.0038 21.9933 33.2217 22.1781 33.3669 22.3893C33.5121 22.6005 33.5847 22.8777 33.5847 23.221V39.7752C34.7464 39.2208 35.9147 38.8049 37.0896 38.5277C38.2645 38.2505 39.4724 38.1119 40.7133 38.1119C41.6638 38.1119 42.5945 38.1911 43.5054 38.3495C44.4163 38.5079 45.3337 38.7455 46.2578 39.0624V20.0131C46.6539 20.1451 47.0433 20.2903 47.4261 20.4487C47.809 20.6071 48.1852 20.7919 48.5548 21.0032C48.8452 21.1352 49.0631 21.3332 49.2083 21.5972C49.3535 21.8612 49.4261 22.1385 49.4261 22.4289V41.5178C49.4261 42.125 49.1687 42.5871 48.6538 42.9039C48.139 43.2207 47.6043 43.2339 47.0499 42.9435C46.073 42.4155 45.0499 42.0062 43.9806 41.7158C42.9113 41.4254 41.8222 41.2802 40.7133 41.2802C39.1292 41.2802 37.5978 41.5574 36.1193 42.1118C34.6408 42.6663 33.2679 43.4451 32.0006 44.4484ZM37.545 34.9436V17.5181L42.2975 15.9339V33.3595L37.545 34.9436Z" fill="#E9C37E"/>
</g>
</svg>
